<svg width="155" height="45" fill="none" xmlns="http://www.w3.org/2000/svg"><path d="M98.597 26.563v-1.146H100.895v-.8H98.597v-1.106h2.592v-.8H97.71v4.65H101.222v-.798h-2.626ZM105.024 22.71H103.273V27.366H105.024c1.434 0 2.476-.98 2.476-2.333 0-1.346-1.042-2.321-2.476-2.321Zm0 3.839h-.863v-3.027h.863c.912 0 1.549.626 1.549 1.52 0 .902-.623 1.507-1.549 1.507ZM112.654 22.71h-.042v2.674c0 .794-.394 1.232-1.111 1.232-.711 0-1.118-.46-1.118-1.265v-2.64H109.495v2.673c0 1.304.726 2.052 1.991 2.052 1.278 0 2.011-.763 2.011-2.09v-2.634H112.654v-.001ZM119.039 26.04l-.028-.028-.028.027c-.388.36-.738.583-1.289.583-.839 0-1.47-.683-1.47-1.59 0-.9.633-1.58 1.47-1.58.452 0 .84.172 1.256.557l.031.03.027-.032.517-.594.026-.03-.029-.027c-.376-.358-.885-.723-1.822-.723-1.37 0-2.404 1.036-2.404 2.411 0 1.367 1.02 2.398 2.371 2.398.967 0 1.496-.415 1.888-.82l.027-.03-.027-.028-.516-.524ZM131.397 26.04l-.027-.028-.029.027c-.387.36-.737.583-1.288.583-.839 0-1.471-.683-1.471-1.59 0-.9.633-1.58 1.471-1.58.452 0 .839.172 1.255.557l.032.03.027-.032.516-.594.026-.03-.029-.027c-.375-.358-.885-.723-1.821-.723-1.37 0-2.405 1.036-2.405 2.411 0 1.156.755 2.11 1.845 2.34l-.482.707-.029.041.046.019.687.288.038.015.016-.037.421-.982c.687-.034 1.202-.279 1.717-.814l.028-.028-.028-.03-.516-.523ZM134.889 22.477l.034.01.015-.033c.099-.223.162-.302.322-.302.098 0 .224.052.359.107.177.073.377.155.584.155.475 0 .653-.404.773-.84l.01-.039-.037-.011-.439-.138-.035-.011-.014.033c-.099.223-.162.302-.323.302-.097 0-.223-.052-.358-.108-.177-.072-.378-.154-.584-.154-.476 0-.653.406-.772.846l-.01.038.039.012.436.133ZM142.047 22.633c-1.393 0-2.443 1.036-2.443 2.411 0 1.367 1.044 2.398 2.43 2.398 1.393 0 2.443-1.036 2.443-2.41 0-1.369-1.045-2.4-2.43-2.4Zm0 3.99c-.866 0-1.517-.684-1.517-1.592 0-.9.647-1.578 1.504-1.578.865 0 1.516.684 1.516 1.591 0 .899-.646 1.578-1.503 1.578ZM97.424 30.262h-.041V31.087H98.836v3.826H99.73v-3.826h1.453V30.262h-3.759ZM106.601 34.913h.041v-.799h-2.626v-1.146h2.299v-.8h-2.299V31.06h2.593v-.798H103.13v4.65h3.471ZM110.861 34.992c.967 0 1.497-.415 1.888-.822l.028-.028-.028-.029-.516-.522-.027-.029-.029.027c-.387.361-.737.584-1.288.584-.839 0-1.471-.684-1.471-1.591 0-.9.633-1.578 1.471-1.578.452 0 .839.171 1.255.556l.031.029.028-.032.516-.593.026-.03-.029-.028c-.376-.357-.885-.722-1.822-.722-1.369 0-2.404 1.036-2.404 2.41 0 1.367 1.02 2.398 2.371 2.398ZM115.576 34.913V31.74l2.453 3.157.012.016H118.777v-4.651H117.903v3.08l-2.381-3.064-.013-.016h-.808v4.65H115.576ZM123.292 30.184c-1.393 0-2.443 1.036-2.443 2.41 0 1.367 1.044 2.4 2.43 2.4 1.393 0 2.443-1.037 2.443-2.412 0-1.368-1.045-2.398-2.43-2.398Zm0 3.99c-.865 0-1.517-.685-1.517-1.592 0-.9.647-1.578 1.504-1.578.865 0 1.516.684 1.516 1.59 0 .9-.646 1.58-1.503 1.58ZM128.681 34.1v-3.838H127.793v4.65H131.09V34.1h-2.409ZM135.002 30.184c-1.393 0-2.443 1.036-2.443 2.41 0 1.367 1.044 2.4 2.43 2.4 1.393 0 2.443-1.037 2.443-2.412 0-1.368-1.045-2.398-2.43-2.398Zm0 3.99c-.865 0-1.517-.685-1.517-1.592 0-.9.647-1.578 1.504-1.578.865 0 1.516.684 1.516 1.59 0 .9-.646 1.58-1.503 1.58ZM141.678 32.277h-.042v.781h1.172v.795a1.852 1.852 0 0 1-1.066.326c-.893 0-1.516-.657-1.516-1.598 0-.886.634-1.579 1.445-1.579.575 0 .908.183 1.256.48l.032.027.026-.032.51-.607.026-.031-.031-.026c-.53-.448-1.048-.63-1.788-.63a2.382 2.382 0 0 0-2.404 2.412c0 1.412.994 2.398 2.417 2.398a2.96 2.96 0 0 0 1.938-.721l.014-.013V32.28H141.678v-.003ZM145.901 30.262h-.041v4.65H146.747v-4.65H145.901ZM99.527 39.734c-.895-.213-1.056-.365-1.056-.686 0-.303.284-.508.706-.508.403 0 .802.152 1.219.462l.033.025.025-.035.431-.606.023-.032-.03-.024a2.602 2.602 0 0 0-1.688-.584c-.945 0-1.605.564-1.605 1.372 0 .866.57 1.174 1.556 1.411.858.198 1.003.365 1.003.666 0 .328-.303.54-.77.54-.514 0-.953-.18-1.42-.583l-.032-.027-.028.031-.484.575-.026.03.03.026a2.875 2.875 0 0 0 1.938.742c1.018 0 1.677-.554 1.677-1.413.003-.722-.433-1.123-1.502-1.382ZM111.15 36.395l-.011.018-.695 1.072-.04.063h.706l.012-.012 1.174-1.069.079-.07h-.106l-1.096-.002h-.023ZM112.004 37.809h-.042v2.673c0 .794-.395 1.232-1.112 1.232-.71 0-1.117-.46-1.117-1.265v-2.64H108.845v2.673c0 1.303.726 2.052 1.991 2.052 1.278 0 2.011-.763 2.011-2.09v-2.635H112.004ZM116.802 37.809h-1.75V42.462h1.75c1.434 0 2.476-.98 2.476-2.332 0-1.345-1.042-2.321-2.476-2.321Zm0 3.839h-.862v-3.025h.862c.912 0 1.549.625 1.549 1.52 0 .9-.622 1.505-1.549 1.505ZM122.236 41.66v-1.144h2.298v-.8h-2.298v-1.108h2.592v-.799H121.35V42.46H124.861v-.799h-2.625ZM126.004 27.285l-2.011-4.592-.011-.024-.01-.024H123.118l-.01.024-.01.024-2.011 4.592-.025.058-.024.057h1.004l.01-.024.01-.025.375-.873h2.202l.368.873.01.024.01.025h1.03l-.024-.057-.029-.058Zm-1.73-1.678h-1.477l.736-1.719.741 1.719ZM153.383 34.89l-.024-.058-2.011-4.592-.012-.024-.01-.025H150.473l-.01.025-.01.024-2.012 4.592-.024.057-.024.058h1.004l.01-.025.01-.024.374-.873h2.202l.369.873.01.024.01.025h1.03l-.029-.058Zm-1.756-1.735h-1.477l.736-1.719.741 1.72ZM107.271 42.383l-2.011-4.592-.012-.024-.01-.025H104.385l-.01.025-.01.024-2.012 4.592-.024.057-.024.058h1.004l.01-.025.01-.024.374-.873h2.202l.369.873.01.024.01.025h1.03l-.024-.058-.029-.057Zm-1.73-1.677h-1.478l.736-1.719.742 1.719ZM138.158 27.285l-2.011-4.592-.012-.024-.01-.024H135.271l-.01.024-.01.024-2.011 4.592-.024.058-.025.057h1.005l.01-.024.01-.025.374-.873h2.202l.369.873.01.024.01.025h1.027l-.024-.057-.026-.058Zm-1.73-1.678h-1.478l.736-1.719.742 1.719ZM21.103 3.574 1.591 44.536h5.102l14.41-30.25 14.408 30.25h5.103L21.104 3.574Z" fill="#fff"></path><path d="M24.338 36.004a3.234 3.234 0 0 1-6.47 0 3.235 3.235 0 0 1 6.47 0ZM78.022 20.594 66.739 44.538h4.932l6.36-13.24 6.284 13.24h5.103L78.022 20.594ZM56.795 20.593h.006l5.526 11.694 5.526-11.694h5.102l-8.537 18.13v5.813h-4.18v-5.814l-6.5-13.803h-6.723v19.617h-4.219V24.917h-5.164l-2.04-4.324h7.15V6.918c0-3.566 2.899-6.457 6.473-6.457 3.575 0 6.473 2.89 6.473 6.457h-4.27a2.199 2.199 0 0 0-2.203-2.197 2.2 2.2 0 0 0-2.202 2.182v13.691l9.782-.001Z" fill="#fff"></path></svg>